<svg id="Capa_1" enable-background="new 0 0 345.336 345.336" height="512" viewBox="0 0 345.336 345.336" width="512" xmlns="http://www.w3.org/2000/svg" xmlns:xlink="http://www.w3.org/1999/xlink"><linearGradient id="SVGID_1_" gradientTransform="matrix(4 0 0 -4 399.516 2043)" gradientUnits="userSpaceOnUse" x1="-29.701" x2="-83.751" y1="438.479" y2="492.529"><stop offset="0" stop-color="#cc5899"/><stop offset="1" stop-color="#ff9c71"/></linearGradient><g><path d="m63.076 100.52c.456-1.165.917-2.324 1.384-3.476 1.46-3.58 5.546-5.298 9.126-3.838s5.298 5.546 3.838 9.126c-.444 1.088-.88 2.188-1.312 3.288-1.467 3.577-5.556 5.287-9.133 3.819-3.494-1.433-5.221-5.38-3.903-8.919zm-8.04 23.904c-6.654 23.3-10.089 47.401-10.208 71.632 0 89.288 51.376 149.28 127.84 149.28 69.708 0 127.84-52.664 127.84-149.28 0-70.432-30.772-143.072-74.832-176.652-15.01-12.199-33.669-19.03-53.008-19.404-37.324 0-73.256 27.792-98.58 76.248-1.682 3.481-.223 7.666 3.258 9.348 3.326 1.607 7.327.353 9.142-2.864 22.836-43.664 54.26-68.732 86.18-68.732 16.267.402 31.934 6.222 44.52 16.536 40.168 30.616 69.32 100.224 69.32 165.52 0 88.344-51.632 135.28-113.84 135.28-68.092 0-113.84-54.364-113.84-135.28.118-22.931 3.373-45.739 9.672-67.788 1.007-3.732-1.202-7.575-4.934-8.582-3.661-.988-7.442 1.118-8.53 4.75zm41.312 85.276c-.002-42.148 34.164-76.318 76.312-76.32s76.318 34.164 76.32 76.312-34.164 76.318-76.312 76.32c-42.129-.044-76.271-34.183-76.32-76.312zm14 0c0 34.416 27.9 62.316 62.316 62.316s62.316-27.9 62.316-62.316c0-34.415-27.897-62.314-62.312-62.316-34.399.044-62.274 27.917-62.32 62.316z" fill="url(#SVGID_1_)"/></g></svg>